<?xml version="1.0" encoding="UTF-8" standalone="no"?>
<!-- Created with Inkscape (http://www.inkscape.org/) -->

<svg
   xmlns:dc="http://purl.org/dc/elements/1.1/"
   xmlns:cc="http://creativecommons.org/ns#"
   xmlns:rdf="http://www.w3.org/1999/02/22-rdf-syntax-ns#"
   xmlns:svg="http://www.w3.org/2000/svg"
   xmlns="http://www.w3.org/2000/svg"
   xmlns:sodipodi="http://sodipodi.sourceforge.net/DTD/sodipodi-0.dtd"
   xmlns:inkscape="http://www.inkscape.org/namespaces/inkscape"
   width="353.74063mm"
   height="125.48955mm"
   viewBox="0 0 353.74063 125.48955"
   version="1.1"
   id="svg18006"
   inkscape:version="0.92.2 (5c3e80d, 2017-08-06)"
   sodipodi:docname="logo-tapiz-white.svg"
   inkscape:export-filename="C:\Users\Usuario\Dropbox\concept\tapiz\LOGO\logo-tapiz-white.png"
   inkscape:export-xdpi="96"
   inkscape:export-ydpi="96">
  <defs
     id="defs18000" />
  <sodipodi:namedview
     id="base"
     pagecolor="#ffffff"
     bordercolor="#666666"
     borderopacity="1.0"
     inkscape:pageopacity="0.0"
     inkscape:pageshadow="2"
     inkscape:zoom="0.35"
     inkscape:cx="752.77204"
     inkscape:cy="-104.28297"
     inkscape:document-units="mm"
     inkscape:current-layer="layer1"
     showgrid="false"
     fit-margin-top="0"
     fit-margin-left="0"
     fit-margin-right="0"
     fit-margin-bottom="0"
     inkscape:window-width="2560"
     inkscape:window-height="1377"
     inkscape:window-x="-8"
     inkscape:window-y="-8"
     inkscape:window-maximized="1" />
  <metadata
     id="metadata18003">
    <rdf:RDF>
      <cc:Work
         rdf:about="">
        <dc:format>image/svg+xml</dc:format>
        <dc:type
           rdf:resource="http://purl.org/dc/dcmitype/StillImage" />
        <dc:title></dc:title>
      </cc:Work>
    </rdf:RDF>
  </metadata>
  <g
     inkscape:label="Capa 1"
     inkscape:groupmode="layer"
     id="layer1"
     transform="translate(318.98939,-2.1778416)">
    <path
       id="path81504"
       d="m -188.80962,2.1778536 c -0.39325,-2.6e-6 -0.80934,0.1566731 -1.30744,0.3503639 -0.49808,0.1936909 -1.07233,0.432996 -1.72961,0.6330368 -0.74184,0.2257796 -3.8826,1.0496577 -7.05691,1.8934245 -3.17434,0.8437695 -6.37834,1.7050968 -7.38458,2.0520713 -0.18301,0.063111 -0.80698,0.185727 -1.68825,0.3198786 -0.8813,0.1341491 -2.04317,0.2906501 -3.39669,0.4604359 -2.70706,0.3395715 -6.18152,0.7334038 -9.72759,1.1177614 -7.09213,0.7687125 -14.47681,1.498941 -16.58192,1.67535 -2.08721,0.174905 -9.61482,0.477771 -17.11473,0.752408 -7.4999,0.274638 -14.98801,0.522349 -17.05581,0.593247 -2.05017,0.07029 -5.7609,1.08e-4 -9.09918,-0.08837 -3.33827,-0.08847 -6.28578,-0.194818 -6.90811,-0.194818 -0.60642,0 -2.07327,0.05343 -3.49591,0.145208 -0.71131,0.04589 -1.40946,0.101005 -1.98178,0.164849 -0.57232,0.06384 -0.99264,0.120155 -1.2604,0.228928 -0.2472,0.100425 -0.66844,0.35357 -1.24436,0.710549 -0.57592,0.356978 -1.28021,0.809461 -1.99006,1.273826 -1.4197,0.928716 -2.85499,1.898388 -3.3414,2.251024 -0.43521,0.315529 -3.92525,2.658348 -7.33031,4.950085 -1.70251,1.145868 -3.39095,2.284648 -4.68548,3.165181 -0.64727,0.440269 -1.19599,0.815671 -1.5994,1.096058 -0.2017,0.140194 -0.3669,0.256415 -0.49091,0.345715 -0.12404,0.0893 -0.19698,0.141076 -0.2558,0.194304 -0.1057,0.09562 -0.19778,0.223822 -0.33023,0.412377 -0.13245,0.188556 -0.29069,0.42876 -0.46558,0.70435 -0.34984,0.55118 -0.76595,1.243796 -1.16324,1.933215 -0.39733,0.68942 -0.77534,1.374712 -1.04905,1.913578 -0.13684,0.269433 -0.24715,0.5011 -0.32298,0.684713 -0.0379,0.09181 -0.0676,0.17069 -0.0878,0.243914 -0.0204,0.07322 -0.0618,0.121166 -0.007,0.275434 0.0617,0.172786 0.15335,0.211706 0.25683,0.283189 0.10348,0.07148 0.23053,0.143399 0.37877,0.21859 0.29655,0.150384 0.67601,0.311709 1.07231,0.457854 0.39626,0.146143 0.80756,0.276574 1.16787,0.361733 0.36033,0.08516 0.64473,0.146061 0.91469,0.07338 0.21172,-0.057 0.46789,-0.187547 0.78184,-0.358119 0.31398,-0.170569 0.66929,-0.379817 1.00513,-0.583427 0.67164,-0.407218 1.26502,-0.793231 1.26502,-0.793231 l 0.005,-0.0031 0.005,-0.0036 c 0,0 5.08138,-3.647088 10.42419,-5.032253 5.37774,-1.394233 13.99691,-2.465864 22.07874,-3.334163 7.89151,-0.847847 16.63073,-0.106802 16.9726,-0.07752 0.0447,0.391546 1.05092,9.213808 1.31103,12.530503 0.12946,1.650383 0.11589,8.113273 0.0574,15.136542 -0.0585,7.023272 -0.1588,14.639706 -0.19222,18.717205 -0.0333,4.055194 -0.54988,8.958093 -1.21647,13.199194 -0.66659,4.241102 -1.49881,7.849019 -2.10169,9.21339 -0.29557,0.668954 -1.09202,1.887069 -2.1027,3.306776 -1.01068,1.419706 -2.23922,3.055506 -3.42098,4.625556 -1.18176,1.57006 -2.3164,3.07422 -3.14193,4.23643 -0.41278,0.5811 -0.74808,1.07569 -0.97668,1.45727 -0.1143,0.1908 -0.20196,0.35209 -0.26149,0.49145 -0.0595,0.13936 -0.13385,0.23934 -0.0589,0.44545 0.1116,0.30687 0.38793,0.49806 0.73123,0.67593 0.34332,0.17787 0.77176,0.32664 1.23611,0.43511 0.92868,0.21695 1.99255,0.28291 2.78534,-0.0191 0.78661,-0.29965 1.83833,-1.12798 3.13315,-2.21536 1.29484,-1.08739 2.80876,-2.43303 4.40491,-3.74964 3.22615,-2.661183 7.0335,-5.485047 9.48571,-7.009393 1.25368,-0.779309 3.40757,-2.319721 5.26222,-3.850926 0.92734,-0.765604 1.77858,-1.527228 2.40607,-2.195732 0.31372,-0.334253 0.5715,-0.644673 0.75755,-0.928627 0.18606,-0.28395 0.31213,-0.537882 0.31213,-0.809768 0,-0.767516 -0.27477,-1.742508 -0.72035,-2.665989 -0.44561,-0.923478 -1.05995,-1.791396 -1.80041,-2.297017 -0.70117,-0.478787 -1.42068,-0.814276 -1.9911,-1.221113 -0.57041,-0.406837 -0.99068,-0.861936 -1.17461,-1.628325 -0.0832,-0.34684 -0.19717,-1.564622 -0.29454,-3.217373 -0.0974,-1.652754 -0.1892,-3.774141 -0.26667,-6.056995 -0.15492,-4.565711 -0.25202,-9.779768 -0.2222,-13.190411 0.0612,-7.002912 0.83018,-29.638249 0.84802,-30.163016 0.46889,0.06682 8.25161,1.168509 14.44717,1.103292 3.2108,-0.0338 8.22436,-0.754576 12.87002,-1.683618 4.64566,-0.929042 8.8855,-2.046399 10.63551,-2.956409 1.74702,-0.908445 5.33929,-3.820211 9.18086,-6.901905 3.84156,-3.081692 7.90718,-6.32324 10.40918,-7.8046899 2.54328,-1.5058892 4.05157,-2.4934148 4.93146,-3.1853346 0.43995,-0.3459612 0.72406,-0.6170242 0.90538,-0.858348 0.18132,-0.2413212 0.26504,-0.4755436 0.2377,-0.6940127 -0.0299,-0.2393103 -0.1738,-0.4155572 -0.34467,-0.5829115 -0.17087,-0.1673516 -0.38391,-0.3233023 -0.61132,-0.4676722 -0.45487,-0.2887345 -0.9598,-0.5262933 -1.294,-0.6376855 -0.107,-0.035713 -0.21861,-0.050175 -0.33124,-0.050169 z m 116.110735,1.1249952 c -0.43225,0.016219 -0.9937,0.2202788 -1.70532,0.5028115 -0.71163,0.2825327 -1.5539,0.6508353 -2.44637,1.0159577 -1.78496,0.7302473 -3.78169,1.4402223 -5.24928,1.4402223 -1.64356,0 -2.69422,-0.09429 -3.32798,-0.1865524 -0.63373,-0.09226 -0.82579,-0.1725983 -0.82579,-0.1725983 l -0.14883,-0.059944 -3.57547,3.0788822 -0.0238,0.064077 c 0,0 -0.72152,1.9512832 -1.42576,4.0224942 -0.35209,1.035606 -0.70007,2.101141 -0.9524,2.971911 -0.12615,0.435385 -0.22812,0.822016 -0.29556,1.135849 -0.0675,0.313833 -0.11155,0.532008 -0.0801,0.741555 0.0502,0.33464 0.26834,0.607243 0.54001,0.843878 0.2717,0.236633 0.60976,0.440502 0.95965,0.607714 0.34988,0.167214 0.71077,0.29654 1.03145,0.374137 0.32067,0.0776 0.58507,0.123986 0.83767,0.03979 0.0692,-0.02307 0.0948,-0.04236 0.14729,-0.07287 0.0525,-0.03051 0.11642,-0.06997 0.19326,-0.118854 0.15377,-0.09777 0.35888,-0.232862 0.60928,-0.401526 0.5008,-0.337331 1.18255,-0.8073 1.98488,-1.365809 1.60464,-1.11702 3.68987,-2.588117 5.75728,-4.052982 4.1348,-2.929734 8.19845,-5.8358193 8.19845,-5.8358193 l 0.0336,-0.023786 0.0249,-0.033589 c 0,0 0.24622,-0.3321394 0.48059,-0.763778 0.23439,-0.4316359 0.48313,-0.9544367 0.42013,-1.4583092 -0.0403,-0.3220932 0.0297,-0.7314195 -0.0109,-1.1503158 -0.0405,-0.4188962 -0.26408,-0.8736515 -0.81494,-1.0939912 -0.11015,-0.044064 -0.22048,-0.052909 -0.33589,-0.048575 z M -225.34228,19.750939 c 0.18791,2.62e-4 0.37055,0.0035 0.54777,0.0093 h 0.003 0.003 c 3.33706,0.07334 6.20389,0.472247 7.57266,0.67696 -1.57041,0.479105 -7.00592,2.10901 -12.407,3.026172 -6.24863,1.061093 -12.31077,1.659112 -16.3313,1.401982 -2.02255,-0.129354 -3.04554,-0.300931 -3.54036,-0.431498 -0.21635,-0.05709 -0.29824,-0.0992 -0.34621,-0.125055 v -1.993162 c 0.35976,-0.04709 6.50055,-0.85009 12.16255,-1.423167 5.47624,-0.554279 9.51791,-1.147083 12.3388,-1.141535 z m 54.32173,2.660303 c -0.18492,-0.0041 -0.36121,0.04445 -0.56377,0.120407 -0.26535,0.09951 -0.5239,0.312499 -0.80254,0.594278 -0.27866,0.281778 -0.56247,0.633674 -0.80356,1.010793 -0.24109,0.377116 -0.4399,0.77801 -0.53745,1.169953 -0.0976,0.391943 -0.0959,0.797827 0.13023,1.120862 0.0819,0.117068 0.18706,0.204626 0.35295,0.343649 0.1659,0.13902 0.38407,0.310041 0.64905,0.510561 0.52996,0.401045 1.24656,0.918631 2.08722,1.513086 1.68132,1.188913 3.85821,2.683931 6.01461,4.149101 4.31279,2.93035 8.54263,5.74177 8.54263,5.74177 l 0.0574,0.03824 0.0687,0.0057 c 0,0 0.32758,0.02537 0.72967,-0.01241 0.40206,-0.03778 0.89292,-0.124923 1.25521,-0.426847 0.35788,-0.298228 0.64471,-0.81624 1.00047,-1.298112 0.35576,-0.481875 0.75679,-0.89971 1.16787,-1.011825 0.0786,-0.02143 0.3828,-0.0657 0.80719,-0.09974 0.42442,-0.03403 0.98594,-0.06441 1.65262,-0.08423 1.33334,-0.03965 3.08715,-0.03695 5.01623,0.06305 3.85815,0.199988 8.42306,0.794456 11.72229,2.188495 6.6993,2.830695 11.5049,5.307979 14.40688,13.077757 0.70474,1.886952 0.33147,3.376133 -0.63098,4.635375 -0.96245,1.25924 -2.54223,2.264241 -4.22662,3.027723 -3.36616,1.525772 -7.11364,2.092015 -7.11946,2.092893 -4.55922,0.56645 -8.99234,0.593411 -13.52372,0.102836 -0.0122,-0.01722 -0.007,-0.0053 -0.0341,-0.05064 -0.0618,-0.10477 -0.1519,-0.285044 -0.24701,-0.570508 -0.19021,-0.570934 -0.40032,-1.562092 -0.44702,-3.196188 -0.0468,-1.639922 2.7e-4,-4.504648 -0.10644,-7.278627 -0.10679,-2.773978 -0.33943,-5.436343 -1.0573,-6.82077 -0.67678,-1.305211 -1.544,-2.379411 -2.37866,-3.091286 -0.41733,-0.355936 -0.82568,-0.621929 -1.21129,-0.778764 -0.38563,-0.156832 -0.76081,-0.211717 -1.08987,-0.0801 l -0.003,5.29e-4 -0.003,5.29e-4 c -0.76928,0.320815 -1.78726,0.919483 -2.60294,1.570445 -0.40783,0.325483 -0.76417,0.662054 -1.01336,0.997874 -0.24921,0.335817 -0.41661,0.691451 -0.31628,1.054197 l 0.003,0.0062 0.003,0.0067 c 0.35219,1.056505 0.36433,2.798413 0.36433,6.294707 0,5.778802 0.37828,54.903105 0.37828,54.903105 v 0.008 0.008 c 0,0 0.28339,4.17841 -2.2464,9.9875 -1.27452,2.92673 -2.50277,5.61819 -3.4132,7.66362 -0.45522,1.02271 -0.83079,1.88362 -1.09453,2.53473 -0.13187,0.32555 -0.23587,0.59822 -0.3085,0.81648 -0.0726,0.21827 -0.11989,0.36308 -0.11989,0.52452 0,0.25359 0.10489,0.50553 0.26252,0.7736 0.15764,0.26806 0.37629,0.5432 0.64027,0.78134 0.26397,0.23814 0.57356,0.44013 0.91985,0.54519 0.34626,0.10506 0.73562,0.10581 1.10485,-0.0646 0.41862,-0.19321 0.91157,-0.69953 1.58387,-1.44487 0.67231,-0.74534 1.4809,-1.72291 2.35075,-2.81171 1.73974,-2.17761 3.72435,-4.80051 5.32939,-6.87762 1.59189,-2.06009 3.71142,-4.22793 5.51543,-5.99653 0.90201,-0.88431 1.72519,-1.66915 2.36627,-2.29392 0.64106,-0.62478 1.08802,-1.06699 1.29138,-1.35754 0.3742,-0.53455 0.63688,-1.36807 0.66199,-2.22312 0.0251,-0.85505 -0.20072,-1.75366 -0.90641,-2.2965 -1.23775,-0.95212 -3.04253,-2.1995 -3.87366,-5.431709 -0.40256,-1.565484 -0.58232,-5.77737 -0.6413,-9.918774 -0.059,-4.141409 -0.0119,-8.246846 -0.0119,-9.764263 0,-1.517409 -0.0473,-3.147491 -0.0238,-4.460192 0.0116,-0.656352 0.0418,-1.233869 0.10129,-1.669666 0.0594,-0.435798 0.18282,-0.729565 0.22322,-0.76998 0.0755,-0.07548 0.32708,-0.207931 0.67646,-0.313158 0.34936,-0.105228 0.79719,-0.19839 1.29088,-0.273887 0.98737,-0.150992 2.15977,-0.23306 3.13727,-0.23306 1.95501,0 11.16666,0.338076 19.0722,-2.138371 3.95137,-1.237771 7.50636,-3.118662 10.06245,-5.602758 2.55608,-2.484096 4.11033,-5.58654 4.0137,-9.209257 -0.19256,-7.222064 -5.96969,-16.285763 -20.78633,-20.844722 -14.78722,-4.549923 -25.54435,-3.431114 -30.91955,-4.635894 -2.73857,-0.613817 -5.23962,-1.203616 -7.27501,-1.768367 -2.03536,-0.56475 -3.61154,-1.111821 -4.46172,-1.604036 -0.66651,-0.385866 -1.07977,-0.664382 -1.39115,-0.856795 -0.31137,-0.192413 -0.54523,-0.315846 -0.82267,-0.321945 z m 91.502445,3.692282 c -0.89818,0.02797 -1.71272,0.636291 -2.49443,1.371491 -0.78169,0.735203 -1.53694,1.62147 -2.25256,2.292369 -0.34526,0.323659 -1.13909,0.891148 -2.11513,1.552358 -0.97605,0.661212 -2.14247,1.426273 -3.27216,2.18953 -1.12966,0.76326 -2.22221,1.52449 -3.05768,2.183847 -0.41775,0.329679 -0.77095,0.632987 -1.03664,0.90537 -0.26567,0.272388 -0.45604,0.495887 -0.5152,0.772046 -0.0955,0.445778 0.051,0.984118 0.28369,1.647447 0.23267,0.663329 0.57179,1.437714 0.93845,2.259809 0.73332,1.644189 1.57729,3.483848 1.89704,4.899959 0.0666,0.294764 0.14851,1.349772 0.20981,2.87011 0.0613,1.520338 0.11179,3.539029 0.15089,5.889045 0.0782,4.700035 0.11076,10.725555 0.093,16.754018 -0.0177,6.028459 -0.0858,12.060004 -0.20825,16.771069 -0.0613,2.355533 -0.13595,4.381355 -0.22482,5.909199 -0.0888,1.527845 -0.2091,2.596804 -0.29919,2.885096 -0.46503,1.488094 -1.02079,2.528631 -1.45677,3.194123 -0.43598,0.66549 -0.73792,0.94309 -0.73792,0.94309 l -0.0114,0.0104 -0.01,0.0114 c 0,0 -0.29506,0.34414 -0.57878,0.80047 -0.28371,0.45633 -0.5847,1.01892 -0.52297,1.57458 0.0616,0.55404 0.47532,1.1089 0.92707,1.62161 0.45175,0.5127 0.9466,0.953 1.26815,1.16737 0.15444,0.10295 0.30925,0.12659 0.53123,0.16433 0.22201,0.0377 0.49821,0.0684 0.81804,0.0961 0.63966,0.0553 1.45269,0.0966 2.3151,0.13797 1.72316,0.0827 3.65014,0.16855 4.69842,0.35037 3.5841,0.7456 5.91892,2.25394 8.27495,2.55178 0.46368,0.083 1.0541,-0.0245 1.53636,-0.49661 0.48371,-0.47358 0.84653,-1.28577 0.94411,-2.57865 0.0196,-0.25845 -0.079,-0.50735 -0.22635,-0.82011 -0.14729,-0.31276 -0.35737,-0.67668 -0.61185,-1.07952 -0.5089,-0.80568 -1.19653,-1.76503 -1.90685,-2.72335 -0.71033,-0.95831 -1.44288,-1.91441 -2.03811,-2.70629 -0.59524,-0.791885 -1.06109,-1.438823 -1.20097,-1.698606 -0.12822,-0.238152 -0.28435,-0.830972 -0.41238,-1.603002 -0.12801,-0.772031 -0.24175,-1.736032 -0.34521,-2.783809 -0.20687,-2.095555 -0.37237,-4.527616 -0.53482,-6.471441 -0.8518,-10.189847 -1.08263,-35.830195 -1.08263,-39.314911 0,-3.460922 0.69517,-6.883993 1.54099,-9.797335 0.40487,-1.394564 1.72395,-3.702614 2.94039,-5.749521 0.6082,-1.023453 1.19052,-1.986671 1.62418,-2.758487 0.21682,-0.385908 0.3965,-0.723712 0.52503,-1.002522 0.12854,-0.278813 0.21704,-0.475261 0.21704,-0.697117 0,-0.355303 -0.25,-0.630287 -0.55655,-0.806669 -0.30655,-0.176382 -0.69567,-0.293833 -1.12964,-0.385506 -0.86796,-0.183346 -1.91545,-0.252868 -2.72076,-0.300239 -0.0581,-0.0034 -0.11613,-0.0043 -0.17415,-0.0026 z m 89.61779,1.167887 c -0.3956001,-0.02188 -1.1058001,0.108121 -2.0732701,0.305408 -0.96782,0.197358 -2.15207,0.469522 -3.33158,0.753959 -2.359,0.568873 -4.67828003,1.180389 -5.24515003,1.35754 0.0259,-0.0081 -0.0634,0.01169 -0.17725,0.02326 -0.11382,0.01156 -0.27204,0.02426 -0.46923997,0.03772 -0.39433,0.02693 -0.94559,0.05701 -1.63039,0.0894 -1.36956,0.06476 -3.27371,0.139258 -5.53971,0.219106 -4.5319899,0.159703 -10.5119999,0.341416 -16.5669399,0.512631 -12.10892,0.342405 -24.54129,0.642807 -26.24955,0.642855 -1.48725,-0.01087 -3.09202,-0.175704 -5.45962,-0.525034 -0.0214,-0.01402 -0.022,-0.01701 -0.0522,-0.03307 -0.0768,-0.04074 -0.18867,-0.09004 -0.34311,-0.137459 -0.30893,-0.09484 -0.78774,-0.181123 -1.50019,-0.173114 h -0.0108 l -0.0114,0.0011 c -0.83558,0.07958 -1.36059,0.757772 -1.67174,1.362192 -0.31115,0.604419 -0.43305,1.185458 -0.43305,1.185458 l -0.031,0.147277 0.1106,0.101801 c 0,0 2.40485,2.221355 4.86791,4.525823 1.23153,1.152236 2.47735,2.325221 3.44371,3.250964 0.48321,0.462873 0.89691,0.864217 1.20251,1.168921 0.30562,0.304705 0.52268,0.545068 0.53795,0.566891 l 0.004,0.0057 0.005,0.0052 c 1.19658,1.531446 2.03992,2.115653 2.81067,2.426208 0.77079,0.310552 1.40113,0.348454 2.27844,0.848011 l 0.0537,0.031 2.51974,0.139528 0.0491,-0.01707 c 0,0 2.68185,-0.924203 4.14444,-1.389578 0.67093,-0.213469 2.88774,-0.612818 4.88344,-0.983404 0.99785,-0.18529 1.94802,-0.36627 2.65099,-0.52348 0.35147,-0.0786 0.64003,-0.150289 0.85058,-0.217559 0.10531,-0.03363 0.18966,-0.06453 0.26615,-0.104902 0.0382,-0.02019 0.075,-0.04037 0.11885,-0.08423 0.0438,-0.04387 0.11274,-0.145362 0.0873,-0.272336 l -0.0305,-0.151929 -0.14677,-0.04806 c 0,0 -2.6521,-0.870645 -5.15731,-1.211812 -1.22865,-0.167318 -2.44451,-0.268383 -3.45096,-0.352433 -1.00642,-0.08405 -1.81978,-0.158062 -2.16731,-0.244946 -0.096,-0.024 -0.0819,-0.02254 -0.11316,-0.03876 0.0977,-0.100639 0.33195,-0.280048 0.61235,-0.498162 0.0236,-0.01828 0.14814,-0.0831 0.31835,-0.142108 0.17018,-0.05901 0.39071,-0.121973 0.6413,-0.185002 0.50117,-0.126058 1.12199,-0.252661 1.72444,-0.364837 1.19743,-0.222959 2.30894,-0.38604 2.32286,-0.38809 l 8.19277,-0.06666 20.3155499,0.390673 -16.7131899,21.497914 -19.11253,23.85694 -0.003,0.0047 c 0,0 -2.2374,3.055269 -4.60748,6.168099 -1.18504,1.556417 -2.40326,3.127381 -3.38945,4.335137 -0.4931,0.603878 -0.92855,1.117262 -1.26968,1.489832 -0.17058,0.186285 -0.31784,0.337124 -0.43357,0.444418 -0.11573,0.107294 -0.21405,0.171162 -0.21498,0.171564 -0.46619,0.203965 -0.89254,0.161494 -1.26608,0.05478 -0.18677,-0.05336 -0.35732,-0.123317 -0.50641,-0.187069 -0.1491,-0.06375 -0.26488,-0.123251 -0.40826,-0.151929 -0.11028,-0.02204 -0.17039,0.0039 -0.22995,0.02532 -0.0596,0.02143 -0.11596,0.04953 -0.17674,0.08371 -0.12155,0.06838 -0.25934,0.162007 -0.41394,0.277503 -0.30914,0.230994 -0.6803,0.547058 -1.0423,0.891937 -0.362,0.344876 -0.71387,0.717216 -0.98237,1.064532 -0.2685,0.347319 -0.478,0.642147 -0.478,0.98961 0,0.25272 0.14989,0.40029 0.32504,0.56637 0.17516,0.16607 0.40982,0.34102 0.69401,0.53227 0.5684,0.38249 1.33524,0.82613 2.17143,1.30276 1.67238,0.95325 3.62527,2.04298 4.72377,2.94762 1.10135,0.90701 1.83362,1.97971 2.32389,2.88664 0.24513,0.45347 0.42955,0.86491 0.56999,1.19425 0.14041,0.32934 0.22625,0.56288 0.31832,0.72398 0.13211,0.2312 0.35256,0.34688 0.64336,0.49506 0.29083,0.14819 0.65585,0.29689 1.05937,0.44132 0.80705,0.28887 1.7653,0.55776 2.54661,0.7276 l 0.003,5.3e-4 0.003,5.3e-4 c 0.68003,0.13391 1.17197,-0.0166 1.50532,-0.29404 0.30202,-0.25137 0.47236,-0.56218 0.65837,-0.82113 0.1707,-0.0267 11.69119,-1.82437 19.43396,-2.60656 7.79674,-0.78765 23.9880999,-1.61889 27.3021899,-1.68517 1.66572,-0.0333 4.7357801,-0.0501 7.8506901,0.0915 3.11492,0.14157 6.2869,0.44891 8.09924,1.03146 1.86794,0.6004 3.98902,1.3185 5.78623,1.91203 1.79718,0.59352 3.24083,1.05933 3.87056,1.17046 0.3733,0.0659 0.74155,-0.0594 1.0759,-0.25838 0.33436,-0.19898 0.6444,-0.47878 0.91261,-0.77773 0.2682,-0.29895 0.49328,-0.61673 0.64854,-0.90227 0.0776,-0.14276 0.13822,-0.27657 0.17725,-0.40411 0.039,-0.12754 0.0677,-0.24788 0.0254,-0.39636 -0.047,-0.16448 -0.1379,-0.24279 -0.24908,-0.34726 -0.11118,-0.10447 -0.25175,-0.21548 -0.41807,-0.3359 -0.33263,-0.24083 -0.76703,-0.51678 -1.23867,-0.79892 -0.9433,-0.56427 -2.03126,-1.15025 -2.70735,-1.48828 -0.13309,-0.0666 -0.49247,-0.28957 -0.97822,-0.61081 -0.48575,-0.32124 -1.11083,-0.74592 -1.82676,-1.2392 -1.43187,-0.98657 -3.22911,-2.24732 -5.02037,-3.508312 -1.79125,-1.260999 -3.57624,-2.522302 -4.98522,-3.51038 -1.40899,-0.988079 -2.41475,-1.687825 -2.74143,-1.879989 -0.54745,-0.322022 -1.08225,-0.740466 -1.65158,-1.055751 -0.56933,-0.315283 -1.19613,-0.529958 -1.88103,-0.377754 -1.2718801,0.282636 -1.7787101,1.508961 -1.8582701,1.711008 -0.12335,0.04848 -3.51944,1.379783 -7.43625,2.102712 -4.00812,0.739783 -7.98505,1.199518 -14.7732799,2.126485 -3.37645,0.461077 -9.23443,0.933509 -14.33245,1.289331 -2.54899,0.17791 -4.90916,0.3265 -6.67763,0.43098 -0.88421,0.0522 -1.62081,0.0934 -2.15853,0.12144 -0.53768,0.028 -0.89397,0.0429 -0.95702,0.0429 -0.0913,0 -0.33073,-0.0731 -0.58706,-0.22169 -0.25633,-0.14859 -0.54009,-0.3634 -0.78909,-0.607202 -0.249,-0.243802 -0.46281,-0.517921 -0.58859,-0.774631 -0.12581,-0.256706 -0.15997,-0.482396 -0.10338,-0.663524 0.0672,-0.214826 0.28226,-0.630225 0.56224,-1.093992 0.28001,-0.463764 0.62527,-0.98811 0.96068,-1.479494 0.67082,-0.982768 1.30069,-1.833481 1.30069,-1.833481 v -5.29e-4 l 10.28774,-14.029118 0.003,-0.0031 c 0.003,-0.0031 6.56312,-8.650618 13.65239,-17.919319 7.0905199,-9.270362 14.7208899,-19.174433 16.8041399,-21.621419 2.08716,-2.451584 4.76813,-4.834366 6.9303401,-6.729307 1.08111,-0.947467 2.03226,-1.772541 2.72023,-2.430859 0.34398,-0.329158 0.62201,-0.615921 0.82219,-0.863513 0.20019,-0.247589 0.3483,-0.435523 0.3483,-0.704866 0,-0.409326 -0.30919,-0.709708 -0.6935,-0.983919 -0.38431,-0.274212 -0.88667,-0.525658 -1.42473,-0.747758 -1.0759,-0.444095 -2.26782,-0.767003 -2.94246,-0.804603 z m -222.093425,1.442288 c -0.0413,0.0048 -0.0877,0.0186 -0.14367,0.0522 -0.14538,0.08723 -0.18084,0.180165 -0.24442,0.298172 -0.0636,0.118009 -0.12687,0.261839 -0.19121,0.427881 -0.12867,0.332084 -0.2599,0.750449 -0.36846,1.179256 -0.10853,0.428808 -0.19434,0.866069 -0.22789,1.240235 -0.0167,0.187084 -0.0212,0.358298 -0.005,0.51263 0.0164,0.154331 0.0446,0.298328 0.15605,0.428397 0.15018,0.175197 0.41291,0.367745 0.81651,0.641821 0.40356,0.274077 0.934,0.606624 1.55649,0.968417 1.24497,0.723588 2.85697,1.563455 4.5408,2.270663 3.31907,1.39401 4.48289,2.399784 5.04672,3.527433 0.13089,0.261765 0.48461,1.151768 0.9431,2.36833 0.45847,1.216565 1.03204,2.778225 1.64124,4.455025 1.21843,3.353602 2.57927,7.167446 3.44787,9.606132 0.86966,2.441763 2.16633,5.947169 3.14708,8.949843 0.49038,1.501336 0.90133,2.877931 1.13946,3.923792 0.11906,0.522925 0.1947,0.964089 0.21653,1.286225 0.0217,0.322138 -0.0479,0.51772 -0.0413,0.510047 -0.006,0.007 -0.22495,0.13665 -0.56637,0.225825 -0.34139,0.08918 -0.80761,0.173331 -1.35752,0.248565 -1.09988,0.150466 -2.53738,0.268312 -4.04731,0.358117 -3.01985,0.179612 -6.33402,0.247015 -7.8631,0.247015 -2.88602,0 -7.68543,-0.224896 -8.25116,-0.251667 0.17611,-0.496612 3.98338,-11.231377 5.16041,-14.631664 1.19329,-3.447323 4.53667,-11.274764 4.53667,-11.274764 l 0.006,-0.01394 0.005,-0.01447 c 0,0 0.13766,-0.46458 0.25786,-1.064017 0.1202,-0.599443 0.22955,-1.331375 0.15502,-1.927532 -0.0477,-0.381791 -0.30178,-0.755568 -0.64027,-1.169956 -0.3385,-0.414387 -0.77398,-0.848944 -1.22319,-1.238165 -0.44918,-0.389223 -0.90945,-0.731652 -1.30844,-0.959633 -0.1995,-0.113988 -0.38212,-0.199943 -0.55603,-0.247528 -0.17393,-0.04759 -0.36763,-0.074 -0.5421,0.05684 -0.0792,0.05939 -0.12592,0.120419 -0.19172,0.206705 -0.0658,0.08629 -0.14086,0.194922 -0.22788,0.328145 -0.17405,0.266446 -0.39458,0.630637 -0.6599,1.089855 -0.53065,0.918448 -1.23939,2.216042 -2.09447,3.845245 -1.71013,3.258408 -4.00418,7.842933 -6.61146,13.358358 -2.60485,5.510228 -6.05226,12.605353 -9.12296,18.679996 -1.53535,3.037321 -2.97641,5.82001 -4.17028,8.020182 -1.19388,2.200172 -2.15091,3.828897 -2.67425,4.510837 -1.07929,1.406331 -3.04292,3.326391 -4.95785,5.18573 -1.91492,1.859338 -3.7788,3.653462 -4.70979,4.894791 -0.89194,1.189232 -1.64809,1.961622 -2.17197,2.536282 -0.26193,0.28733 -0.46725,0.52357 -0.60616,0.75757 -0.1389,0.234 -0.21246,0.49636 -0.13642,0.74983 0.0919,0.30654 0.34555,0.50298 0.66922,0.73019 0.32363,0.2272 0.73207,0.45219 1.16271,0.64595 0.43063,0.19376 0.88188,0.35596 1.29397,0.4501 0.41209,0.0941 0.78076,0.13687 1.09762,0.015 0.27205,-0.10464 0.7451,-0.37302 1.42523,-0.76843 0.68014,-0.39541 1.54356,-0.91127 2.5027,-1.48105 1.91825,-1.13954 4.21902,-2.495 6.18101,-3.525879 1.94397,-1.021408 3.67263,-1.499409 5.02605,-1.875337 0.6767,-0.187963 1.25936,-0.349168 1.73683,-0.548286 0.47747,-0.19912 0.86323,-0.440317 1.0909,-0.812871 0.39696,-0.649563 0.53457,-1.338956 0.68522,-2.12597 0.15068,-0.787011 0.31359,-1.682602 0.73898,-2.795177 l 0.004,-0.0088 0.003,-0.0093 c 0.97359,-3.229321 2.98508,-5.509336 5.1852,-8.009329 0.13171,-0.06144 5.86994,-2.725854 13.68806,-3.77703 7.71615,-1.037468 14.27294,-0.211008 14.59756,-0.168984 0.11009,0.157205 1.68452,2.412376 2.173,3.877799 0.46638,1.399144 0.74628,3.098851 0.80872,3.488677 -0.10673,0.0076 -0.13022,0.0024 -0.28628,0.02635 -0.32284,0.04967 -0.70474,0.125044 -0.98753,0.360701 -0.17917,0.14931 -0.30199,0.368728 -0.46458,0.667144 -0.16258,0.298416 -0.33483,0.66171 -0.48887,1.028359 -0.15399,0.366651 -0.28911,0.735322 -0.37568,1.049033 -0.0433,0.156856 -0.0746,0.299186 -0.0889,0.428913 -0.0143,0.129731 -0.0275,0.245145 0.0439,0.388091 0.08,0.160023 0.17407,0.211164 0.31728,0.319876 0.14322,0.108715 0.33359,0.238773 0.57259,0.396875 0.478,0.316206 1.14943,0.741752 1.99419,1.292429 1.68955,1.101354 4.06876,2.701345 6.93497,4.900993 2.87787,2.208593 4.98528,3.671913 6.44509,4.594033 0.72991,0.46106 1.2976,0.78678 1.72238,1.00407 0.42477,0.21729 0.68001,0.32937 0.90176,0.35708 0.17441,0.0218 0.29329,-0.0326 0.44389,-0.0987 0.1506,-0.0661 0.31914,-0.15946 0.50228,-0.2744 0.36632,-0.22989 0.78947,-0.54606 1.18753,-0.89659 0.39809,-0.35052 0.76999,-0.73252 1.03198,-1.10587 0.26199,-0.37334 0.4535,-0.75524 0.31626,-1.13946 -0.0666,-0.1866 -0.19336,-0.35114 -0.37259,-0.569992 -0.1792,-0.218858 -0.4128,-0.479425 -0.69193,-0.788067 -0.5583,-0.617284 -1.29781,-1.425755 -2.12183,-2.441194 -1.64806,-2.030881 -3.63302,-4.887521 -5.15731,-8.665104 v -5.29e-4 -0.0011 c -8.78689,-21.301966 -14.82569,-37.304784 -17.40884,-46.168701 -0.1931,-1.201772 -0.16622,-2.219127 -0.23977,-3.070098 -0.0739,-0.854927 -0.27474,-1.591517 -0.96171,-2.049487 -0.18618,-0.124129 -0.49419,-0.273092 -0.92913,-0.468706 -0.43495,-0.195612 -0.98775,-0.429805 -1.62058,-0.68988 -1.26563,-0.520153 -2.85117,-1.143688 -4.44055,-1.760617 -3.17879,-1.233855 -6.40464,-2.456744 -7.02697,-2.736784 -0.6196,-0.278821 -1.81411,-0.848146 -2.94192,-1.353405 -0.56391,-0.252629 -1.11147,-0.489368 -1.56737,-0.66766 -0.4559,-0.178289 -0.78954,-0.302876 -1.05833,-0.320394 -0.0353,-0.0024 -0.0714,-0.0064 -0.11264,-0.0016 z"
       style="fill:#ffffff;fill-rule:evenodd;stroke:none;stroke-width:0.52916664;stroke-linecap:butt;stroke-linejoin:miter;stroke-miterlimit:4;stroke-dasharray:none;stroke-opacity:1"
       inkscape:connector-curvature="0" />
  </g>
</svg>
