<?xml version="1.0" encoding="UTF-8" standalone="no"?>
<!-- Created with Inkscape (http://www.inkscape.org/) -->

<svg
   xmlns:dc="http://purl.org/dc/elements/1.1/"
   xmlns:cc="http://creativecommons.org/ns#"
   xmlns:rdf="http://www.w3.org/1999/02/22-rdf-syntax-ns#"
   xmlns:svg="http://www.w3.org/2000/svg"
   xmlns="http://www.w3.org/2000/svg"
   xmlns:sodipodi="http://sodipodi.sourceforge.net/DTD/sodipodi-0.dtd"
   xmlns:inkscape="http://www.inkscape.org/namespaces/inkscape"
   width="360.70291mm"
   height="132.51534mm"
   viewBox="0 0 360.70291 132.51534"
   version="1.1"
   id="svg13506"
   inkscape:version="0.92.2 (5c3e80d, 2017-08-06)"
   sodipodi:docname="logo-tapiz-letters.svg"
   inkscape:export-filename="C:\Users\Usuario\Dropbox\concept\tapiz\LOGO\logo-tapiz-letters.png"
   inkscape:export-xdpi="96"
   inkscape:export-ydpi="96">
  <defs
     id="defs13500" />
  <sodipodi:namedview
     id="base"
     pagecolor="#ffffff"
     bordercolor="#666666"
     borderopacity="1.0"
     inkscape:pageopacity="0.0"
     inkscape:pageshadow="2"
     inkscape:zoom="0.35"
     inkscape:cx="423.07185"
     inkscape:cy="300.42269"
     inkscape:document-units="mm"
     inkscape:current-layer="layer1"
     showgrid="false"
     fit-margin-top="0"
     fit-margin-left="0"
     fit-margin-right="0"
     fit-margin-bottom="0"
     inkscape:window-width="2560"
     inkscape:window-height="1377"
     inkscape:window-x="-8"
     inkscape:window-y="-8"
     inkscape:window-maximized="1" />
  <metadata
     id="metadata13503">
    <rdf:RDF>
      <cc:Work
         rdf:about="">
        <dc:format>image/svg+xml</dc:format>
        <dc:type
           rdf:resource="http://purl.org/dc/dcmitype/StillImage" />
        <dc:title></dc:title>
      </cc:Work>
    </rdf:RDF>
  </metadata>
  <g
     inkscape:label="Capa 1"
     inkscape:groupmode="layer"
     id="layer1"
     transform="translate(231.75621,-102.23042)">
    <path
       style="fill:#ffffff;fill-rule:evenodd;stroke:#000000;stroke-width:0.79374999;stroke-linecap:butt;stroke-linejoin:miter;stroke-miterlimit:4;stroke-dasharray:none;stroke-opacity:1"
       d="m -98.513893,102.63028 c -9.400067,2.70371 -18.794177,5.68825 -28.601587,6.43253 -20.02154,2.414 -40.24807,3.19314 -60.40435,3.35757 -5.50958,-0.0294 -11.15383,-0.72285 -16.60674,0.3483 -4.21035,1.45715 -7.51654,4.60633 -11.30132,6.84725 -4.04811,2.81651 -8.32684,5.3898 -12.06387,8.60099 -1.68476,2.33924 -3.50769,4.89123 -3.86519,7.80874 0.31175,3.16516 3.96109,4.59269 6.75411,4.49171 3.07738,-0.0507 5.02671,-2.7301 7.62891,-3.92457 5.53722,-3.11712 11.87978,-4.22512 18.09908,-4.89342 7.99372,-1.15343 16.06195,-2.00784 24.14855,-1.48629 1.82298,12.98719 0.77252,26.20519 0.89792,39.31329 -0.14609,8.20081 -0.5742,16.71287 -3.0213,24.51537 -2.26262,5.79308 -7.7709,9.60351 -10.07536,15.36134 -0.91387,2.65929 1.67781,4.93857 4.06642,5.43481 3.38484,0.88015 6.75575,-0.84424 9.11469,-3.1874 6.52231,-6.49842 14.96337,-10.61667 21.64519,-16.91887 2.19308,-2.33477 2.20948,-6.05382 0.38861,-8.61136 -1.03432,-1.81348 -2.9445,-2.97027 -4.38526,-4.27519 -0.35063,-3.02145 -0.26757,-6.09592 -0.51729,-9.11934 -0.4132,-12.8837 0.16394,-25.76515 0.56534,-38.6395 10.51614,1.43801 21.25509,0.27412 31.43995,-2.57039 -1.2569,2.39416 -1.63569,5.84405 0.7059,7.73028 1.37031,1.27309 3.32943,2.03175 4.82451,2.84376 -2.37994,3.49364 -3.97295,7.47824 -6.02344,11.17461 -6.56379,13.0308 -12.07784,26.65588 -19.99771,38.95101 -3.95906,4.67083 -9.21762,8.29764 -12.26489,13.69787 -0.89815,2.59913 1.22052,5.14255 3.60547,5.92987 2.75542,1.24815 6.03866,0.39766 8.22301,-1.56943 4.46021,-2.801 9.1938,-5.25376 14.29086,-6.63472 3.11324,-1.92231 2.62416,-6.11854 4.17546,-9.00462 1.32672,-2.99674 3.89435,-5.5914 7.24813,-6.08025 6.6503,-2.08788 13.73835,-2.73578 20.667987,-2.15801 0.50826,0.97889 1.92183,2.42756 0.63717,3.36672 -1.794937,2.19833 -2.399177,6.08563 0.18035,7.94009 2.31213,1.69369 4.87824,2.85889 7.04525,4.75309 4.04994,3.00164 7.94896,6.49316 12.76181,8.2027 3.45519,0.019 6.66745,-2.94648 7.11378,-6.31537 -0.10602,-3.28598 -3.59949,-4.87296 -4.98522,-7.50394 -5.11219,-7.62735 -7.36066,-16.70795 -11.07674,-25.03533 -3.6185,-9.2587 -7.45329,-18.52108 -9.79589,-28.17692 0.10986,-2.89818 -1.40113,-6.22938 -4.455137,-6.90297 -5.94771,-2.42058 -11.88957,-4.85701 -17.8882,-7.15044 4.95905,-2.64566 8.83992,-6.7961 13.37329,-10.04092 3.97471,-3.18823 8.340527,-5.86537 12.522797,-8.73416 1.89069,-1.89549 1.71727,-5.5401 -0.72967,-6.88227 -1.16759,-0.85257 -2.61613,-1.33166 -4.06538,-1.28622 z m 116.53344,1.07022 c -4.32249,0.61683 -8.2705503,4.13863 -12.7640803,2.63911 -2.80598,-0.32813 -4.82304001,2.13604 -6.62593,3.88607 -1.88468,2.46726 -2.2483,5.67366 -3.40651,8.48372 -0.78283,2.49415 -0.11748,5.65243 2.40863,6.8616 2.45411999,1.4808 5.74704,0.8886 7.69951,-1.14656 5.3609603,-3.73172 10.8920203,-7.30895 15.8396203,-11.5705 2.12112,-2.71565 1.66227,-7.68894 -1.88103,-8.97051 -0.40991,-0.12828 -0.84044,-0.19355 -1.27021,-0.18293 z m -98.51025,19.12286 c -4.09393,0.38237 -7.23229,5.65112 -4.72891,9.20874 2.68406,2.82899 6.35314,4.43143 9.35343,6.86418 3.09328,2.17367 6.17402,4.39963 9.54671,6.12831 -0.43712,3.03105 0.58237,6.02867 0.18383,9.05732 -0.0991,18.87891 0.63189,37.76768 0.10607,56.63944 -1.11526,6.70506 -5.96136,12.27003 -6.86315,19.03398 0.45308,3.89631 6.04158,6.24825 8.8346,3.20963 6.04417,-6.45534 10.63068,-14.28104 17.54674,-19.88613 2.49376,-2.6922 2.82363,-7.71291 -0.45579,-9.93893 -1.7684,-1.30629 -2.85133,-3.38601 -2.69988,-5.60347 -0.58025,-6.70398 -0.21082,-13.51085 -0.34489,-20.26833 -0.28245,-1.46253 1.4944,-0.83128 2.38821,-1.0496 6.63423,-0.19776 13.4253,-0.18127 19.8039,-2.32901 6.36011,-1.95536 12.7974,-5.88212 15.40198,-12.2902 2.5349697,-6.91949 -0.34676,-14.76922 -5.38676,-19.79259 -7.25918,-7.53802 -17.7739,-10.58689 -27.79146,-12.32492 -10.30466,-1.74397 -21.30387,-0.81434 -30.96878,-5.2368 -1.28563,-0.54387 -2.44593,-1.54504 -3.92585,-1.42162 z m 91.25387,3.71295 c -4.0615403,0.56793 -5.9015803,4.88353 -9.3524103,6.58048 -2.96336,2.03324 -6.96648,3.75879 -8.01968,7.52822 -0.40582,4.32343 3.63492,7.60799 3.2204,11.94598 0.24183,9.50221 0.24096,19.04591 0.2612,28.56627 -0.0734,6.54413 -0.14111,13.11322 -0.859,19.59829 -1.25431,2.38486 -3.89969,4.77177 -2.95487,7.74268 0.97357,3.78496 5.29146,5.78222 8.95864,5.18108 3.89501,-0.0575 7.58997,1.34239 11.1476303,2.74712 2.82771,0.77713 6.20229,-0.72017 6.96495,-3.68453 1.09405,-3.22491 -0.78312,-6.49523 -2.95796,-8.77362 -1.8355,-2.10791 -3.62212,-4.60861 -3.40014,-7.57672 -1.54106,-15.64435 -1.54519,-31.43566 -1.53445,-47.16723 0.27641,-5.13752 2.19874,-10.17503 5.35472,-14.26372 1.33059,-1.96967 2.00501,-5.08289 -0.062,-6.80476 -1.83184,-1.62871 -4.47093,-1.58654 -6.76701,-1.61954 z m 89.669973,1.14618 c -5.981573,0.83035 -11.738003,3.27898 -17.864803,2.7308 -15.41296,0.41974 -30.84388,1.33851 -46.25615,0.92396 -2.6865,-0.76848 -6.35318,-1.04459 -8.09636,1.61521 -1.02799,1.40515 -1.41015,3.15731 -1.57406,4.86017 5.12866,4.33529 9.53948,9.50482 14.83942,13.62191 3.32759,1.79791 7.51936,1.83165 10.85102,0.0331 3.62042,-1.16565 7.91519,-0.67575 11.01481,-3.16674 0.60045,-0.75451 0.82815,-1.76993 0.68112,-2.71611 4.52972,0.05 9.05679,0.23864 13.58675,0.27544 -13.34455,17.24044 -27.12704,34.14566 -40.46059,51.38807 -0.72929,0.37999 -1.7009,-0.15292 -2.49338,0.33797 -2.15371,0.89485 -3.99193,2.76474 -4.83484,4.93355 -0.66807,2.13104 0.67323,4.28785 2.54712,5.26996 2.92622,2.00585 7.06165,3.09321 8.32147,6.80372 0.85333,2.05236 2.85657,3.28053 4.96818,3.70623 2.09453,0.73066 4.60624,0.77939 6.36548,-0.75706 2.07733,-0.77721 4.3847,-0.48914 6.52415,-1.0542 16.18311,-2.14119 32.48919,-3.46019 48.813753,-2.87375 4.97112,0.43238 9.58397,2.50565 14.36071,3.86181 3.65347,0.60428 7.65003,-2.91007 6.67451,-6.65541 -0.87876,-2.91232 -4.27485,-3.59892 -6.43935,-5.22638 -6.31227,-3.62186 -11.57846,-8.84673 -18.13949,-12.04647 -2.29679,-0.71423 -4.826823,0.37287 -6.309703,2.16886 -10.51904,3.07466 -21.51449,3.62352 -32.36683,4.73722 -3.04924,0.25426 -6.11838,0.45385 -9.16657,0.51724 13.48013,-18.89192 27.70138,-37.24634 42.08323,-55.4545 3.184733,-3.66789 7.405983,-6.33873 10.396273,-10.16888 1.20761,-1.97598 0.33171,-4.64339 -1.67587,-5.71284 -1.84142,-1.30121 -4.13176,-1.83067 -6.35,-1.95285 z m -153.858833,14.90607 c 8.30866,0.44978 17.48395,3.17761 22.071,10.69031 0.91686,1.48172 1.73612,3.86074 -0.0951,4.99349 -2.62879,1.94093 -5.97807,2.52959 -9.11313,3.11247 -3.19499,0.38634 -6.71087,0.56292 -9.72034,0.0491 -0.61995,-6.25424 1.05489,-13.5193 -3.25403,-18.82117 l -0.0254,-0.0304 z m -56.726767,10.87531 c 2.2965,6.2745 4.76749,12.49841 6.59598,18.93218 -4.61634,0.4263 -9.29846,0.50533 -13.94024,0.36535 2.27952,-6.57196 4.66527,-13.10352 7.24607,-19.56728 l 0.0905,0.24862 z"
       id="path81484"
       inkscape:connector-curvature="0" />
    <path
       inkscape:connector-curvature="0"
       style="fill:#000000;fill-rule:evenodd;stroke:none;stroke-width:0.52916664;stroke-linecap:butt;stroke-linejoin:miter;stroke-miterlimit:4;stroke-dasharray:none;stroke-opacity:1"
       d="m -98.071033,105.7505 c -0.39322,0 -0.80932,0.15668 -1.30741,0.35037 -0.49809,0.19369 -1.072327,0.43299 -1.729607,0.63303 -0.74185,0.22578 -3.88261,1.04966 -7.05693,1.89343 -3.17433,0.84377 -6.37833,1.70509 -7.38457,2.05207 -0.18302,0.0631 -0.80697,0.18573 -1.68826,0.31988 -0.8813,0.13415 -2.04317,0.29065 -3.3967,0.46043 -2.70705,0.33957 -6.1815,0.73341 -9.72757,1.11776 -7.09213,0.76872 -14.47681,1.49895 -16.58194,1.67535 -2.0872,0.17491 -9.61481,0.47778 -17.11471,0.75241 -7.49991,0.27464 -14.98801,0.52235 -17.05581,0.59325 -2.0502,0.0703 -5.7609,1.1e-4 -9.09919,-0.0884 -3.33828,-0.0885 -6.28579,-0.19482 -6.9081,-0.19482 -0.60643,0 -2.07329,0.0534 -3.49591,0.14521 -0.71131,0.0459 -1.40948,0.10101 -1.98179,0.16485 -0.57232,0.0638 -0.99265,0.12015 -1.26039,0.22893 -0.2472,0.10042 -0.66845,0.35357 -1.24437,0.71055 -0.57592,0.35697 -1.2802,0.80946 -1.99006,1.27382 -1.41971,0.92872 -2.855,1.89839 -3.3414,2.25103 -0.43521,0.31553 -3.92526,2.65835 -7.3303,4.95008 -1.70252,1.14587 -3.39095,2.28465 -4.6855,3.16518 -0.64727,0.44027 -1.19599,0.81567 -1.59939,1.09606 -0.20169,0.1402 -0.36689,0.25642 -0.49092,0.34572 -0.12403,0.0893 -0.19697,0.14107 -0.2558,0.1943 -0.10569,0.0956 -0.19777,0.22382 -0.33021,0.41238 -0.13245,0.18855 -0.2907,0.42876 -0.46561,0.70435 -0.34981,0.55118 -0.76593,1.24379 -1.16323,1.93321 -0.39731,0.68942 -0.77533,1.37471 -1.04904,1.91358 -0.13685,0.26943 -0.24715,0.5011 -0.32297,0.68471 -0.0379,0.0918 -0.0676,0.17069 -0.0879,0.24392 -0.0203,0.0732 -0.0618,0.12116 -0.007,0.27543 0.0617,0.17279 0.15334,0.21171 0.25683,0.28319 0.10348,0.0715 0.23052,0.1434 0.37879,0.21859 0.29653,0.15038 0.67601,0.31171 1.07228,0.45785 0.39627,0.14615 0.80757,0.27658 1.16789,0.36174 0.36032,0.0852 0.64472,0.14606 0.91467,0.0734 0.21172,-0.057 0.46789,-0.18755 0.78187,-0.35812 0.31397,-0.17057 0.66928,-0.37982 1.0051,-0.58343 0.67165,-0.40721 1.26504,-0.79323 1.26504,-0.79323 l 0.005,-0.003 0.005,-0.004 c 0,0 5.08138,-3.64709 10.42417,-5.03225 5.37776,-1.39423 13.99692,-2.46587 22.07876,-3.33416 7.8915,-0.84785 16.63071,-0.10681 16.9726,-0.0775 0.0447,0.39154 1.0509,9.2138 1.31104,12.5305 0.12944,1.65038 0.11587,8.11327 0.0574,15.13654 -0.0585,7.02327 -0.15882,14.63971 -0.19224,18.71721 -0.0332,4.05519 -0.54988,8.95809 -1.21646,13.19919 -0.66659,4.2411 -1.49882,7.84902 -2.10169,9.21339 -0.29558,0.66895 -1.09202,1.88707 -2.10271,3.30678 -1.01069,1.4197 -2.23922,3.0555 -3.42098,4.62555 -1.18176,1.57005 -2.31639,3.07422 -3.14193,4.23643 -0.41276,0.58111 -0.74807,1.07569 -0.97668,1.45727 -0.11431,0.1908 -0.20195,0.35209 -0.26148,0.49145 -0.0595,0.13936 -0.13386,0.23934 -0.0589,0.44545 0.11159,0.30687 0.38791,0.49806 0.73122,0.67593 0.3433,0.17787 0.77176,0.32664 1.2361,0.43511 0.92868,0.21695 1.99255,0.28291 2.78536,-0.0191 0.78659,-0.29965 1.83832,-1.12798 3.13314,-2.21536 1.29482,-1.08739 2.80876,-2.43303 4.4049,-3.74965 3.22615,-2.66118 7.03351,-5.48503 9.48573,-7.00938 1.25367,-0.77931 3.40755,-2.31972 5.26221,-3.85093 0.92732,-0.7656 1.77858,-1.52722 2.40605,-2.19573 0.31374,-0.33425 0.57152,-0.64467 0.75758,-0.92863 0.18605,-0.28395 0.31212,-0.53788 0.31212,-0.80976 0,-0.76752 -0.27477,-1.74251 -0.72036,-2.66599 -0.4456,-0.92348 -1.05995,-1.7914 -1.80041,-2.29702 -0.70117,-0.47879 -1.42068,-0.81428 -1.99109,-1.22111 -0.57042,-0.40684 -0.99068,-0.86194 -1.17461,-1.62833 -0.0832,-0.34684 -0.19718,-1.56462 -0.29456,-3.21737 -0.0974,-1.65276 -0.18919,-3.77414 -0.26665,-6.057 -0.15491,-4.56571 -0.25203,-9.77976 -0.2222,-13.19041 0.0612,-7.00291 0.83017,-29.63825 0.84801,-30.16301 0.46889,0.0668 8.2516,1.16851 14.44717,1.10329 3.21081,-0.0338 8.22436,-0.75458 12.87002,-1.68362 4.64567,-0.92904 8.88551,-2.0464 10.63553,-2.95641 1.74701,-0.90844 5.33927,-3.82021 9.18083,-6.9019 3.84157,-3.0817 7.90718,-6.32324 10.40919,-7.80469 2.543277,-1.50589 4.051567,-2.49342 4.931477,-3.18534 0.43995,-0.34596 0.72406,-0.61702 0.90537,-0.85835 0.18132,-0.24132 0.26502,-0.47554 0.23771,-0.69401 -0.0299,-0.23931 -0.1738,-0.41556 -0.34468,-0.58291 -0.17087,-0.16735 -0.3839,-0.3233 -0.61133,-0.46767 -0.45485,-0.28874 -0.9598,-0.5263 -1.29398,-0.63769 -0.107,-0.0357 -0.21859,-0.0501 -0.33124,-0.0501 z m 116.11074,1.125 c -0.43225,0.0162 -0.99369,0.22028 -1.70531,0.50281 -0.71163,0.28253 -1.5539,0.65083 -2.44637,1.01596 -1.78496,0.73024 -3.78169,1.44022 -5.2492803,1.44022 -1.64356,0 -2.69422,-0.0943 -3.32798,-0.18655 -0.63373,-0.0923 -0.82579,-0.1726 -0.82579,-0.1726 l -0.14883,-0.06 -3.57547001,3.07889 -0.0238,0.0641 c 0,0 -0.72151,1.95128 -1.42576,4.02249 -0.35207999,1.03561 -0.70005999,2.10114 -0.95238999,2.97191 -0.12615,0.43539 -0.22812,0.82202 -0.29557,1.13585 -0.0675,0.31383 -0.11154,0.53201 -0.0801,0.74156 0.0502,0.33464 0.26834,0.60724 0.54001,0.84387 0.2717,0.23664 0.60975999,0.44051 0.95964999,0.60772 0.34988,0.16721 0.71077,0.29654 1.03145,0.37413 0.32067,0.0776 0.58507001,0.12399 0.83767001,0.0398 0.0692,-0.0231 0.0948,-0.0424 0.14729,-0.0729 0.0525,-0.0305 0.11642,-0.07 0.19325,-0.11885 0.15378,-0.0978 0.35888,-0.23286 0.60929,-0.40153 0.5008,-0.33733 1.18255,-0.80729 1.98487,-1.3658 1.60465,-1.11702 3.68988,-2.58812 5.7572803,-4.05299 4.13481,-2.92973 8.19846,-5.83582 8.19846,-5.83582 l 0.0336,-0.0238 0.0249,-0.0336 c 0,0 0.24622,-0.33214 0.48058,-0.76378 0.2344,-0.43164 0.48313,-0.95444 0.42014,-1.45831 -0.0403,-0.32209 0.0297,-0.73142 -0.0109,-1.15031 -0.0405,-0.4189 -0.26408,-0.87366 -0.81494,-1.094 -0.11015,-0.0441 -0.22048,-0.0529 -0.33589,-0.0486 z m -152.643387,16.44809 c 0.18789,2.6e-4 0.37056,0.004 0.54777,0.009 h 0.002 0.002 c 3.33705,0.0733 6.20389,0.47224 7.57266,0.67696 -1.57041,0.4791 -7.00591,2.10901 -12.40699,3.02617 -6.24866,1.06109 -12.31078,1.65911 -16.33131,1.40198 -2.02255,-0.12935 -3.04553,-0.30093 -3.54035,-0.4315 -0.21637,-0.0571 -0.29825,-0.0992 -0.34623,-0.12505 v -1.99316 c 0.35976,-0.0471 6.50057,-0.85009 12.16256,-1.42317 5.47624,-0.55428 9.5179,-1.14708 12.33878,-1.14154 z m 54.321747,2.6603 c -0.18493,-0.004 -0.36123,0.0444 -0.56379,0.12041 -0.26535,0.0995 -0.52389,0.3125 -0.80254,0.59428 -0.27864,0.28177 -0.56248,0.63367 -0.80356,1.01079 -0.24109,0.37711 -0.43988,0.77801 -0.53744,1.16995 -0.0976,0.39195 -0.0959,0.79783 0.13023,1.12086 0.0819,0.11707 0.18705,0.20463 0.35294,0.34365 0.1659,0.13902 0.38409,0.31004 0.64906,0.51056 0.52995,0.40105 1.24655,0.91863 2.08721,1.51309 1.68133,1.18891 3.85822,2.68393 6.01462,4.1491 4.3128,2.93035 8.54263,5.74177 8.54263,5.74177 l 0.0574,0.0382 0.0687,0.006 c 0,0 0.3276,0.0254 0.72967,-0.0124 0.40208,-0.0378 0.89291,-0.12492 1.25522,-0.42685 0.35788,-0.29822 0.6447,-0.81624 1.00046,-1.29811 0.35576,-0.48187 0.7568,-0.89971 1.16789,-1.01182 0.0786,-0.0214 0.38277,-0.0657 0.80718,-0.0997 0.42441,-0.034 0.98595,-0.0644 1.65262,-0.0842 1.33333,-0.0397 3.08715,-0.037 5.01623,0.063 3.85815,0.19999 8.42305,0.79445 11.72228,2.18849 6.69931,2.8307 11.50491,5.30798 14.40688,13.07776 0.70475,1.88695 0.33147,3.37613 -0.63097,4.63538 -0.96245,1.25923 -2.54223,2.26424 -4.22662,3.02772 -3.36616,1.52577 -7.11364,2.09201 -7.11946,2.09289 -4.55923,0.56645 -8.99235,0.59341 -13.52373,0.10284 -0.0122,-0.0172 -0.007,-0.005 -0.0341,-0.0506 -0.0618,-0.10477 -0.15191,-0.28505 -0.24702,-0.57051 -0.19022,-0.57093 -0.40031,-1.56209 -0.447,-3.19619 -0.0469,-1.63992 2.7e-4,-4.50465 -0.10645,-7.27862 -0.10678,-2.77398 -0.33945,-5.43635 -1.0573,-6.82077 -0.67677,-1.30522 -1.544,-2.37942 -2.37867,-3.09129 -0.41733,-0.35594 -0.82567,-0.62193 -1.21129,-0.77876 -0.38562,-0.15684 -0.76081,-0.21172 -1.08986,-0.0801 l -0.002,5.3e-4 -0.002,5.2e-4 c -0.76928,0.32082 -1.78726,0.91949 -2.60294,1.57045 -0.40784,0.32548 -0.76417,0.66205 -1.01338,0.99787 -0.2492,0.33582 -0.4166,0.69145 -0.31626,1.0542 l 0.002,0.006 0.002,0.007 c 0.35217,1.05651 0.36432,2.79841 0.36432,6.29471 0,5.7788 0.37827,54.9031 0.37827,54.9031 v 0.008 l 5.3e-4,0.008 c 0,0 0.28339,4.17841 -2.24638,9.9875 -1.27454,2.92673 -2.50279,5.61819 -3.41323,7.66362 -0.45521,1.02271 -0.83077,1.88362 -1.0945,2.53473 -0.13187,0.32555 -0.23588,0.59822 -0.30851,0.81648 -0.0726,0.21827 -0.11989,0.36308 -0.11989,0.52452 0,0.25359 0.10488,0.50553 0.26252,0.7736 0.15764,0.26806 0.3763,0.5432 0.64027,0.78134 0.26396,0.23814 0.57356,0.44013 0.91984,0.54519 0.34627,0.10506 0.73563,0.10581 1.10484,-0.0646 0.41863,-0.19321 0.91158,-0.69953 1.58388,-1.44487 0.67231,-0.74534 1.4809,-1.72291 2.35076,-2.81171 1.73973,-2.17761 3.72436,-4.80051 5.32939,-6.87762 1.59189,-2.06009 3.71141,-4.22793 5.51543,-5.99653 0.90201,-0.88431 1.72519,-1.66915 2.36626,-2.29392 0.64108,-0.62478 1.08802,-1.06699 1.2914,-1.35754 0.37418,-0.53455 0.63687,-1.36807 0.66197,-2.22312 0.0251,-0.85505 -0.20071,-1.75366 -0.9064,-2.2965 -1.23777,-0.95213 -3.04253,-2.1995 -3.87367,-5.43171 -0.40255,-1.56548 -0.58231,-5.77737 -0.6413,-9.91877 -0.059,-4.14141 -0.0119,-8.24685 -0.0119,-9.76426 0,-1.51741 -0.0473,-3.14749 -0.0238,-4.4602 0.0118,-0.65635 0.0418,-1.23386 0.10129,-1.66966 0.0594,-0.4358 0.18282,-0.72957 0.22324,-0.76998 0.0755,-0.0755 0.32707,-0.20793 0.67644,-0.31316 0.34938,-0.10523 0.79719,-0.19839 1.29088,-0.27389 0.98737,-0.15099 2.15979,-0.23306 3.13728,-0.23306 1.95501,0 11.16667,0.33808 19.0722,-2.13837 3.95137,-1.23777 7.50637,-3.11866 10.06245,-5.60276 2.55609,-2.48409 4.11033,-5.58654 4.0137,-9.20925 -0.19256,-7.22207 -5.96968,-16.28577 -20.78632,-20.84472 -14.78724,-4.54993 -25.54437,-3.43112 -30.91956,-4.6359 -2.73857,-0.61382 -5.23964,-1.20361 -7.27501,-1.76837 -2.03536,-0.56475 -3.61155,-1.11182 -4.46174,-1.60403 -0.6665,-0.38587 -1.07975,-0.66438 -1.39113,-0.8568 -0.31138,-0.19241 -0.54523,-0.31584 -0.82269,-0.32194 z m 91.50243,3.69228 c -0.89818,0.028 -1.7127303,0.63629 -2.4944403,1.37149 -0.78168,0.73521 -1.53693,1.62147 -2.25255,2.29237 -0.34526,0.32366 -1.13909,0.89115 -2.11514,1.55236 -0.97604,0.66121 -2.14246,1.42627 -3.27215,2.18953 -1.12967001,0.76326 -2.22221,1.52449 -3.05768,2.18385 -0.41775,0.32968 -0.77095,0.63298 -1.03664,0.90537 -0.26567,0.27239 -0.45604,0.49589 -0.5152,0.77204 -0.0955,0.44578 0.051,0.98412 0.28369,1.64745 0.23267,0.66333 0.57179,1.43771 0.93845,2.25981 0.73332,1.64419 1.57728999,3.48385 1.89702999,4.89996 0.0666,0.29476 0.14852,1.34977 0.20982,2.87011 0.0613,1.52034 0.11179,3.53903 0.15089,5.88904 0.0782,4.70004 0.11076,10.72556 0.093,16.75402 -0.0177,6.02846 -0.0858,12.06001 -0.20825,16.77107 -0.0613,2.35553 -0.13595,4.38136 -0.22482,5.9092 -0.0889,1.52784 -0.2091,2.5968 -0.29919,2.8851 -0.46502999,1.48809 -1.02078999,2.52862 -1.45676999,3.19411 -0.43598,0.66549 -0.73792,0.9431 -0.73792,0.9431 l -0.0114,0.0103 -0.01,0.0114 c 0,0 -0.29506,0.34414 -0.57878,0.80047 -0.28371,0.45633 -0.5847,1.01892 -0.52297,1.57458 0.0616,0.55404 0.47532,1.1089 0.92707,1.62161 0.45175,0.5127 0.9466,0.953 1.26815,1.16737 0.15444,0.10295 0.30924,0.12659 0.53123,0.16433 0.22201,0.0377 0.49820999,0.0684 0.81803999,0.0961 0.63965,0.0553 1.45269,0.0966 2.31510001,0.13797 1.72315,0.0827 3.65014,0.16855 4.69842,0.35037 3.5841003,0.7456 5.9189103,2.25394 8.2749503,2.55178 0.46368,0.083 1.0541,-0.0245 1.53636,-0.49661 0.48371,-0.47358 0.84653,-1.28577 0.94411,-2.57865 0.0196,-0.25845 -0.079,-0.50735 -0.22635,-0.82011 -0.1473,-0.31276 -0.35738,-0.67668 -0.61185,-1.07952 -0.5089,-0.80569 -1.19653,-1.76503 -1.90685,-2.72335 -0.71033,-0.95831 -1.44288,-1.91441 -2.03812,-2.70629 -0.59523,-0.79189 -1.06108,-1.43882 -1.20097,-1.69861 -0.12821,-0.23815 -0.28434,-0.83097 -0.41238,-1.603 -0.128,-0.77203 -0.24175,-1.73603 -0.3452,-2.78381 -0.20687,-2.09555 -0.37237,-4.52761 -0.53483,-6.47144 -0.8518003,-10.18984 -1.0826203,-35.83019 -1.0826203,-39.31491 0,-3.46092 0.69517,-6.88399 1.5409903,-9.79733 0.40486,-1.39457 1.72394,-3.70262 2.94039,-5.74952 0.6082,-1.02346 1.19052,-1.98668 1.62417,-2.75849 0.21683,-0.38591 0.39651,-0.72371 0.52504,-1.00252 0.12854,-0.27882 0.21704,-0.47526 0.21704,-0.69712 0,-0.3553 -0.25,-0.63029 -0.55655,-0.80667 -0.30655,-0.17638 -0.69567,-0.29383 -1.12964,-0.38551 -0.86796,-0.18334 -1.91545,-0.25286 -2.72076,-0.30023 -0.0581,-0.003 -0.11613,-0.004 -0.17415,-0.003 z m 89.617803,1.16789 c -0.39561,-0.0219 -1.105803,0.10812 -2.073283,0.30541 -0.96782,0.19736 -2.15207,0.46952 -3.33158,0.75396 -2.359,0.56887 -4.67828,1.18039 -5.24515,1.35754 0.0259,-0.008 -0.0634,0.0117 -0.17725,0.0233 -0.11382,0.0116 -0.27204,0.0243 -0.46924,0.0377 -0.39433,0.0269 -0.94559,0.057 -1.63038,0.0894 -1.36957,0.0648 -3.27372,0.13926 -5.53972,0.2191 -4.53199,0.15971 -10.512,0.34142 -16.56694,0.51263 -12.10892,0.34241 -24.54129,0.64281 -26.24955,0.64286 -1.48725,-0.0109 -3.09202,-0.1757 -5.45962,-0.52503 -0.0214,-0.014 -0.022,-0.017 -0.0522,-0.0331 -0.0768,-0.0407 -0.18868,-0.09 -0.34312,-0.13746 -0.30892,-0.0948 -0.78774,-0.18113 -1.50019,-0.17312 h -0.0109 l -0.0114,0.001 c -0.83558,0.0796 -1.3606,0.75778 -1.67175,1.36219 -0.31115,0.60442 -0.43304,1.18546 -0.43304,1.18546 l -0.031,0.14728 0.1106,0.1018 c 0,0 2.40485,2.22136 4.86791,4.52582 1.23153,1.15224 2.47735,2.32523 3.44371,3.25097 0.48321,0.46287 0.89691,0.86421 1.20251,1.16892 0.30562,0.3047 0.52268,0.54507 0.53795,0.56689 l 0.004,0.006 0.005,0.005 c 1.19657,1.53145 2.03991,2.11565 2.81066,2.42621 0.77079,0.31055 1.40113,0.34845 2.27844,0.84801 l 0.0537,0.031 2.51974,0.13953 0.0491,-0.0171 c 0,0 2.68185,-0.92421 4.14444,-1.38958 0.67093,-0.21347 2.88774,-0.61282 4.88344,-0.98341 0.99785,-0.18529 1.94802,-0.36627 2.65099,-0.52348 0.35147,-0.0786 0.64003,-0.15028 0.85058,-0.21756 0.10531,-0.0336 0.18966,-0.0645 0.26615,-0.1049 0.0382,-0.0202 0.075,-0.0404 0.11885,-0.0842 0.0438,-0.0439 0.11274,-0.14536 0.0873,-0.27233 l -0.0305,-0.15193 -0.14677,-0.0481 c 0,0 -2.6521,-0.87065 -5.15731,-1.21182 -1.22864,-0.16731 -2.44451,-0.26838 -3.45096,-0.35243 -1.00642,-0.084 -1.81978,-0.15806 -2.16731,-0.24494 -0.096,-0.024 -0.0819,-0.0225 -0.11316,-0.0388 0.0977,-0.10064 0.33195,-0.28005 0.61235,-0.49817 0.0236,-0.0183 0.14814,-0.0831 0.31835,-0.1421 0.17018,-0.059 0.39071,-0.12198 0.6413,-0.18501 0.50117,-0.12605 1.12199,-0.25266 1.72444,-0.36483 1.19743,-0.22296 2.30894,-0.38604 2.32286,-0.38809 l 8.19277,-0.0667 20.31556,0.39067 -16.7132,21.49791 -19.11252,23.85694 -0.003,0.005 c 0,0 -2.2374,3.05527 -4.60748,6.1681 -1.18504,1.55642 -2.40326,3.12738 -3.38945,4.33514 -0.4931,0.60388 -0.92855,1.11726 -1.26968,1.48983 -0.17057,0.18629 -0.31784,0.33712 -0.43357,0.44442 -0.11573,0.10729 -0.21405,0.17116 -0.21497,0.17156 -0.4662,0.20397 -0.89255,0.1615 -1.26609,0.0548 -0.18677,-0.0534 -0.35732,-0.12331 -0.50641,-0.18707 -0.14909,-0.0637 -0.26488,-0.12325 -0.40825,-0.15192 -0.11028,-0.022 -0.17039,0.004 -0.22995,0.0253 -0.0596,0.0214 -0.11597,0.0495 -0.17674,0.0837 -0.12155,0.0684 -0.25935,0.162 -0.41394,0.2775 -0.30914,0.23099 -0.6803,0.54706 -1.0423,0.89193 -0.36201,0.34488 -0.71388,0.71722 -0.98238,1.06454 -0.2685,0.34732 -0.478,0.64214 -0.478,0.9896 0,0.25273 0.14989,0.4003 0.32505,0.56637 0.17515,0.16608 0.40981,0.34103 0.694,0.53227 0.5684,0.3825 1.33525,0.82614 2.17144,1.30277 1.67237,0.95325 3.62526,2.04298 4.72376,2.94762 1.10136,0.90701 1.83362,1.97971 2.32389,2.88664 0.24514,0.45347 0.42955,0.86491 0.56999,1.19425 0.14042,0.32934 0.22625,0.56288 0.31832,0.72398 0.13211,0.2312 0.35256,0.34688 0.64336,0.49506 0.29083,0.14819 0.65585,0.29689 1.05937,0.44132 0.80706,0.28887 1.7653,0.55775 2.54661,0.7276 l 0.003,5.3e-4 0.003,5.3e-4 c 0.68004,0.13391 1.17198,-0.0166 1.50532,-0.29404 0.30203,-0.25138 0.47236,-0.56218 0.65837,-0.82113 0.17071,-0.0266 11.69119,-1.82437 19.43396,-2.60657 7.79674,-0.78764 23.9881,-1.61888 27.3022,-1.68516 1.66571,-0.0333 4.735773,-0.0501 7.850693,0.0915 3.11491,0.14157 6.28689,0.44891 8.09924,1.03146 1.86793,0.6004 3.98901,1.3185 5.78622,1.91203 1.79718,0.59352 3.24083,1.05933 3.87056,1.17046 0.37331,0.0659 0.74155,-0.0594 1.07591,-0.25838 0.33435,-0.19898 0.64439,-0.47878 0.9126,-0.77773 0.2682,-0.29895 0.49329,-0.61674 0.64854,-0.90227 0.0776,-0.14276 0.13822,-0.27657 0.17725,-0.40411 0.039,-0.12754 0.0677,-0.24788 0.0254,-0.39636 -0.047,-0.16448 -0.1379,-0.24279 -0.24908,-0.34726 -0.11118,-0.10448 -0.25175,-0.21548 -0.41807,-0.3359 -0.33263,-0.24083 -0.76703,-0.51678 -1.23867,-0.79892 -0.94329,-0.56427 -2.03126,-1.15025 -2.70735,-1.48828 -0.13309,-0.0666 -0.49247,-0.28957 -0.97822,-0.61081 -0.48575,-0.32124 -1.11083,-0.74592 -1.82676,-1.2392 -1.43187,-0.98657 -3.22911,-2.24732 -5.02036,-3.50832 -1.79126,-1.26099 -3.57624,-2.5223 -4.98523,-3.51038 -1.40899,-0.98807 -2.41475,-1.68782 -2.74143,-1.87998 -0.54745,-0.32203 -1.08225,-0.74047 -1.65158,-1.05576 -0.56933,-0.31528 -1.19613,-0.52995 -1.88103,-0.37775 -1.27188,0.28264 -1.778713,1.50896 -1.858273,1.71101 -0.12335,0.0485 -3.51944,1.37978 -7.43625,2.10271 -4.00812,0.73978 -7.98505,1.19952 -14.77328,2.12649 -3.37645,0.46107 -9.23443,0.9335 -14.33245,1.28932 -2.54899,0.17791 -4.90916,0.32651 -6.67763,0.43099 -0.88421,0.0522 -1.62081,0.0934 -2.15853,0.12143 -0.53768,0.028 -0.89397,0.0429 -0.95702,0.0429 -0.0913,0 -0.33073,-0.0731 -0.58706,-0.2217 -0.25633,-0.14859 -0.54009,-0.36339 -0.78909,-0.60719 -0.249,-0.24381 -0.46281,-0.51792 -0.58859,-0.77463 -0.12581,-0.25671 -0.15997,-0.4824 -0.10338,-0.66353 0.0672,-0.21482 0.28226,-0.63022 0.56224,-1.09399 0.28001,-0.46376 0.62527,-0.98811 0.96068,-1.47949 0.67082,-0.98277 1.30069,-1.83348 1.30069,-1.83348 v -5.3e-4 l 10.28774,-14.02912 0.003,-0.003 c 0.003,-0.003 6.56312,-8.65062 13.65239,-17.91932 7.09052,-9.27036 14.72089,-19.17444 16.80414,-21.62142 2.08717,-2.45159 4.76814,-4.83437 6.930343,-6.72931 1.08111,-0.94747 2.03226,-1.77254 2.72023,-2.43086 0.34399,-0.32915 0.62201,-0.61592 0.82219,-0.86351 0.20019,-0.24759 0.3483,-0.43552 0.3483,-0.70487 0,-0.40932 -0.30919,-0.7097 -0.6935,-0.98391 -0.38431,-0.27422 -0.88667,-0.52566 -1.42473,-0.74776 -1.0759,-0.4441 -2.26782,-0.76701 -2.94245,-0.80461 z m -222.09344,1.44229 c -0.0413,0.005 -0.0877,0.0186 -0.14366,0.0522 -0.14538,0.0872 -0.18085,0.18016 -0.24443,0.29817 -0.0636,0.11801 -0.12687,0.26184 -0.1912,0.42788 -0.12867,0.33209 -0.25992,0.75045 -0.36846,1.17926 -0.10854,0.42881 -0.19434,0.86607 -0.22789,1.24023 -0.0168,0.18709 -0.0211,0.3583 -0.005,0.51263 0.0164,0.15433 0.0446,0.29833 0.15607,0.4284 0.15017,0.1752 0.4129,0.36774 0.81648,0.64182 0.40359,0.27408 0.93402,0.60662 1.5565,0.96842 1.24496,0.72359 2.85698,1.56345 4.54081,2.27066 3.31906,1.39401 4.48289,2.39978 5.04672,3.52743 0.13088,0.26177 0.48461,1.15177 0.94309,2.36833 0.45848,1.21657 1.03203,2.77823 1.64125,4.45503 1.21842,3.3536 2.57927,7.16745 3.44785,9.60613 0.86966,2.44176 2.16633,5.94717 3.14709,8.94984 0.49038,1.50134 0.90134,2.87794 1.13947,3.9238 0.119057,0.52292 0.194697,0.96409 0.216517,1.28622 0.0218,0.32214 -0.0479,0.51772 -0.0413,0.51005 -0.006,0.007 -0.224967,0.13665 -0.566367,0.22582 -0.34141,0.0892 -0.80761,0.17333 -1.35754,0.24857 -1.09987,0.15046 -2.53737,0.26831 -4.0473,0.35811 -3.01985,0.17962 -6.334,0.24702 -7.86309,0.24702 -2.88602,0 -7.68544,-0.2249 -8.25117,-0.25167 0.17612,-0.49661 3.98339,-11.23137 5.16041,-14.63166 1.1933,-3.44732 4.53667,-11.27477 4.53667,-11.27477 l 0.006,-0.0139 0.005,-0.0145 c 0,0 0.13767,-0.46457 0.25787,-1.06401 0.1202,-0.59944 0.22955,-1.33138 0.15503,-1.92753 -0.0477,-0.38179 -0.30178,-0.75557 -0.64027,-1.16996 -0.3385,-0.41439 -0.774,-0.84894 -1.22319,-1.23816 -0.44918,-0.38923 -0.90945,-0.73166 -1.30844,-0.95964 -0.1995,-0.11399 -0.38211,-0.19994 -0.55604,-0.24753 -0.17393,-0.0476 -0.36763,-0.074 -0.54209,0.0568 -0.0792,0.0594 -0.12593,0.12042 -0.19172,0.20671 -0.0658,0.0863 -0.14087,0.19492 -0.22789,0.32814 -0.17404,0.26645 -0.39458,0.63064 -0.65991,1.08986 -0.53064,0.91845 -1.23937,2.21604 -2.09444,3.84524 -1.71014,3.25841 -4.0042,7.84294 -6.61148,13.35836 -2.60484,5.51023 -6.05227,12.60536 -9.12297,18.68 -1.53534,3.03732 -2.9764,5.82001 -4.17028,8.02018 -1.19389,2.20017 -2.15091,3.8289 -2.67426,4.51084 -1.07928,1.40633 -3.04291,3.32639 -4.95784,5.18573 -1.91492,1.85933 -3.77879,3.65346 -4.70979,4.89479 -0.89192,1.18923 -1.6481,1.96162 -2.17196,2.53628 -0.26193,0.28733 -0.46725,0.52357 -0.60616,0.75757 -0.13892,0.234 -0.21247,0.49636 -0.13643,0.74983 0.092,0.30654 0.34557,0.50298 0.66921,0.73019 0.32364,0.2272 0.73209,0.45219 1.16272,0.64595 0.43063,0.19376 0.88189,0.35596 1.29398,0.4501 0.4121,0.0941 0.78075,0.13687 1.09761,0.015 0.27205,-0.10464 0.7451,-0.37302 1.42523,-0.76843 0.68014,-0.39541 1.54356,-0.91127 2.50269,-1.48105 1.91826,-1.13954 4.21903,-2.49501 6.18102,-3.52588 1.94397,-1.02141 3.67264,-1.49941 5.02605,-1.87534 0.67671,-0.18796 1.25938,-0.34916 1.73685,-0.54828 0.47747,-0.19912 0.86321,-0.44032 1.09089,-0.81287 0.39695,-0.64957 0.53456,-1.33896 0.68523,-2.12597 0.15066,-0.78701 0.31357,-1.6826 0.73897,-2.79518 l 0.004,-0.009 0.003,-0.009 c 0.97358,-3.22932 2.9851,-5.50934 5.18521,-8.00933 0.1317,-0.0614 5.86992,-2.72585 13.68806,-3.77703 7.71616,-1.03747 14.272947,-0.21101 14.597557,-0.16898 0.1101,0.1572 1.68451,2.41237 2.17299,3.8778 0.46638,1.39914 0.74628,3.09885 0.80874,3.48867 -0.10674,0.008 -0.13023,0.002 -0.28629,0.0264 -0.32284,0.0497 -0.70475,0.12505 -0.98754,0.3607 -0.17917,0.14931 -0.30197,0.36873 -0.46457,0.66715 -0.16259,0.29841 -0.33484,0.66171 -0.48886,1.02836 -0.15401,0.36665 -0.28912,0.73532 -0.37569,1.04903 -0.0433,0.15686 -0.0746,0.29919 -0.0889,0.42891 -0.0143,0.12973 -0.0275,0.24515 0.0439,0.38809 0.08,0.16003 0.17406,0.21117 0.31729,0.31988 0.14322,0.10871 0.33358,0.23877 0.57257,0.39688 0.47799,0.3162 1.14943,0.74175 1.9942,1.29242 1.68954,1.10136 4.06877,2.70135 6.93498,4.901 2.87786,2.20858 4.98526,3.6719 6.44508,4.59403 0.72991,0.46106 1.29761,0.78678 1.72238,1.00407 0.42477,0.21729 0.68,0.32936 0.90175,0.35708 0.17441,0.0218 0.2933,-0.0326 0.4439,-0.0987 0.1506,-0.0661 0.31915,-0.15946 0.50229,-0.2744 0.3663,-0.22989 0.78945,-0.54607 1.18753,-0.89659 0.39807,-0.35052 0.76999,-0.73253 1.03198,-1.10587 0.26199,-0.37335 0.45348,-0.75525 0.31626,-1.13947 -0.0666,-0.1866 -0.19338,-0.35113 -0.37259,-0.56999 -0.17921,-0.21886 -0.4128,-0.47942 -0.69195,-0.78807 -0.55828,-0.61727 -1.2978,-1.42574 -2.12183,-2.44118 -1.64806,-2.03088 -3.63302,-4.88752 -5.15731,-8.66511 l -5.3e-4,-5.3e-4 -5.3e-4,-0.001 c -8.78584,-21.30196 -14.82463,-37.30478 -17.407767,-46.1687 -0.1931,-1.20177 -0.16622,-2.21912 -0.23978,-3.0701 -0.0739,-0.85492 -0.27474,-1.59151 -0.9617,-2.04948 -0.18619,-0.12413 -0.49418,-0.27309 -0.92914,-0.46871 -0.43496,-0.19561 -0.98775,-0.4298 -1.62057,-0.68988 -1.26563,-0.52015 -2.85116,-1.14369 -4.44056,-1.76062 -3.17878,-1.23385 -6.40465,-2.45674 -7.02696,-2.73678 -0.6196,-0.27882 -1.81411,-0.84815 -2.94194,-1.3534 -0.56391,-0.25263 -1.11144,-0.48937 -1.56734,-0.66766 -0.45591,-0.17829 -0.78956,-0.30288 -1.05834,-0.3204 -0.0353,-0.002 -0.0714,-0.006 -0.11265,-0.002 z"
       id="path81414" />
  </g>
</svg>
