<?xml version="1.0" encoding="UTF-8" standalone="no"?>
<svg
   xmlns:dc="http://purl.org/dc/elements/1.1/"
   xmlns:cc="http://creativecommons.org/ns#"
   xmlns:rdf="http://www.w3.org/1999/02/22-rdf-syntax-ns#"
   xmlns:svg="http://www.w3.org/2000/svg"
   xmlns="http://www.w3.org/2000/svg"
   xmlns:sodipodi="http://sodipodi.sourceforge.net/DTD/sodipodi-0.dtd"
   xmlns:inkscape="http://www.inkscape.org/namespaces/inkscape"
   height="24.72514"
   width="303.34637"
   version="1.1"
   id="svg84499"
   inkscape:version="0.92.2 (5c3e80d, 2017-08-06)"
   sodipodi:docname="h1-ribbon.svg">
  <title
     id="title20269">Desktop template</title>
  <defs
     id="defs84492" />
  <sodipodi:namedview
     id="base"
     pagecolor="#ffffff"
     bordercolor="#666666"
     borderopacity="1.0"
     inkscape:pageopacity="1"
     inkscape:pageshadow="2"
     inkscape:zoom="0.7"
     inkscape:cx="-831.9571"
     inkscape:cy="-269.81612"
     inkscape:document-units="px"
     inkscape:current-layer="svg84499"
     showgrid="true"
     units="px"
     inkscape:window-width="2560"
     inkscape:window-height="1406"
     inkscape:window-x="1920"
     inkscape:window-y="0"
     inkscape:window-maximized="1"
     fit-margin-top="0"
     fit-margin-left="0"
     fit-margin-right="0"
     fit-margin-bottom="0">
    <inkscape:grid
       type="xygrid"
       id="grid20267"
       spacingx="8"
       spacingy="8.0000001"
       empcolor="#ff0000"
       empopacity="0.25098039"
       empspacing="2"
       originx="-529.25182"
       originy="-624.38908" />
  </sodipodi:namedview>
  <metadata
     id="metadata84496">
    <rdf:RDF>
      <cc:Work
         rdf:about="">
        <dc:format>image/svg+xml</dc:format>
        <dc:type
           rdf:resource="http://purl.org/dc/dcmitype/StillImage" />
        <dc:title>Desktop template</dc:title>
        <dc:creator>
          <cc:Agent>
            <dc:title>Xaviju</dc:title>
          </cc:Agent>
        </dc:creator>
        <dc:subject>
          <rdf:Bag>
            <rdf:li>web desktop 1920x1080</rdf:li>
          </rdf:Bag>
        </dc:subject>
        <cc:license
           rdf:resource="http://creativecommons.org/licenses/by/4.0/" />
      </cc:Work>
      <cc:License
         rdf:about="http://creativecommons.org/licenses/by/4.0/">
        <cc:permits
           rdf:resource="http://creativecommons.org/ns#Reproduction" />
        <cc:permits
           rdf:resource="http://creativecommons.org/ns#Distribution" />
        <cc:requires
           rdf:resource="http://creativecommons.org/ns#Notice" />
        <cc:requires
           rdf:resource="http://creativecommons.org/ns#Attribution" />
        <cc:permits
           rdf:resource="http://creativecommons.org/ns#DerivativeWorks" />
      </cc:License>
    </rdf:RDF>
  </metadata>
  <g
     id="desktop"
     transform="translate(-529.25182,-430.88578)" />
  <path
     inkscape:connector-curvature="0"
     id="path81624"
     d="m 149.48758,22.584564 c -1.4641,-2.48128 -4.9888,-4.95672 -6.4491,-4.52919 -0.5249,0.15365 -1.8424,0.637 -2.928,1.07412 -1.0854,0.43713 -2.5167,0.58342 -3.1806,0.3251 -1.0478,-0.40771 -0.927,-0.58834 0.9159,-1.36896 1.1676,-0.4946 2.0097,-1.23877 1.8713,-1.6537 -0.1382,-0.41494 -1.7518,-1.26445 -3.5858,-1.8878 -2.6276,-0.89318 -3.6646,-0.98286 -4.893,-0.42314 -1.1549,0.52621 -1.9747,0.52076 -3.1638,-0.021 -1.1674,-0.53195 -16.1223,-0.7351 -54.867315,-0.74533 -29.29433,-0.008 -53.57425,-0.0109 -53.95543,-0.007 -0.83957,0.009 -2.16956,2.76853 -2.16956,4.50212 0,1.04573 -0.2911,1.18493 -1.74939,0.83657 -0.96217,-0.22985 -2.03566,-0.62523 -2.38554,-0.87862 -0.34988,-0.2534 -3.4272099,-1.39888 -6.8385299,-2.54552 -6.11912003,-2.05681 -7.27073,-2.86827 -5.08914,-3.58591 0.61229,-0.20141 1.97204,-0.73894 3.02168,-1.19451 5.3158,-2.3071705 12.5339099,-4.8436305 12.8589199,-4.5186505 0.20236,0.20233 0.43792,1.25857 0.52361,2.34718 0.0856,1.08863 0.46235,2.2859905 0.83716,2.6608005 0.47622,0.4762 16.90938,0.6364 54.55302,0.53183 46.004515,-0.1278 54.078715,-0.28542 55.290315,-1.07933 1.1584,-0.7589805 1.7321,-0.7869805 3.1247,-0.15249 1.417,0.64564 2.2916,0.57803 5.1672,-0.3994305 3.6945,-1.2558 4.4684,-2.60143 1.8712,-3.25332 -0.8747,-0.21953 -1.5903,-0.62375 -1.5903,-0.89827 0,-1.09513 1.8442,-1.09625 4.2869,-0.002 2.4879,1.11389 2.6405,1.11376 4.4778,-0.004 1.0463,-0.63624 2.6851,-2.18311 3.6418,-3.43747 0.9568,-1.25436 1.9203,-2.27883996 2.1411,-2.276639963351 0.221,0.00200000335 0.8774,0.840250003351 1.4589,1.862309963351 0.5814,1.02205 2.2236,2.63016 3.6492,3.57359 2.4652,1.6314 2.669,1.66476 4.1685,0.68226 1.7331,-1.13546 5.4383,-1.40587 5.4383,-0.3968 0,0.34988 -0.3747,0.63614 -0.8326,0.63614 -0.458,0 -1.3883,0.41036 -2.0675,0.9119 -1.16,0.85665 -1.0116,1.01103 2.4484,2.54778 3.3521,1.4887905 3.8399,1.5548005 5.4269,0.7342005 1.3592,-0.7029005 2.0198,-0.7386605 2.9962,-0.16224 0.9184,0.54212 15.427,0.78517 54.3706,0.91084 29.2149,0.0943 53.7495,0.0204 54.5214,-0.16416 1.0242,-0.24491 1.5195,-0.97867 1.8329,-2.7159905 0.2362,-1.30922 0.5465,-2.58639 0.6896,-2.83815 0.1431,-0.25176 1.7515,0.14043 3.5743,0.87154 1.8228,0.73109 5.819,2.17927 8.8804,3.21818 3.0615,1.0389005 5.5662,2.1075805 5.5662,2.3748205 0,0.26725 -2.5047,1.35259 -5.5662,2.41186 -3.0614,1.05927 -7.0576,2.52391 -8.8804,3.25475 -1.8228,0.73083 -3.4312,1.12281 -3.5743,0.87105 -0.1431,-0.25176 -0.4486,-1.50359 -0.679,-2.78186 -0.2304,-1.27826 -0.8676,-2.49627 -1.4159,-2.70668 -0.5483,-0.21041 -23.5132,-0.35645 -51.0331,-0.32454 -27.5199,0.0319 -51.1722,0.018 -52.5607,-0.0309 -1.3885,-0.0489 -3.6121,0.40147 -4.9412,1.00085 -2.0298,0.91536 -2.6598,0.95962 -3.9361,0.27657 -1.2761,-0.68294 -2.0131,-0.63143 -4.601,0.32163 -4.1606,1.53221 -4.6689,2.10434 -2.9225,3.28929 0.7872,0.53413 1.4313,1.22249 1.4313,1.5297 0,0.88229 -2.1793,0.65093 -3.5362,-0.37544 -0.6792,-0.51368 -1.735,-0.94308 -2.3463,-0.95421 -1.3557,-0.0247 -6.0015,4.06442 -6.538,5.75454 -0.5626,1.77245 -1.2771,1.514 -2.7592,-0.99793 z m 3.4826,-4.47862 c 0.5802,-0.88561 0.9447,-1.68228 0.8098,-1.77037 -0.1348,-0.0881 -0.7141,-0.517 -1.2872,-0.95315 -0.8102,-0.61655 -1.4075,-0.6265 -2.6845,-0.0447 -1.6129,0.7349 -1.6231,0.78085 -0.5701,2.56337 1.323,2.23987 2.3612,2.29686 3.732,0.20485 z m -4.8426,-4.50823 c 0,-0.52482 -0.2863,-0.77729 -0.6361,-0.56106 -0.3499,0.21624 -0.6362,0.82255 -0.6362,1.34737 0,0.52482 0.2863,0.7773 0.6362,0.56106 0.3498,-0.21623 0.6361,-0.82255 0.6361,-1.34737 z m 7.7292,0.71123 c 0,-0.33239 -0.3078,-0.70692 -0.6839,-0.83229 -0.3761,-0.12537 -0.6839,0.24915 -0.6839,0.83229 0,0.58313 0.3078,0.95766 0.6839,0.83228 0.3761,-0.12537 0.6839,-0.4999 0.6839,-0.83228 z M 14.232945,13.741634 c 1.02878,-0.75225 1.08317,-1.0392 0.36178,-1.90843 -0.98316,-1.18457 -4.07882,-1.32899 -6.9597699,-0.32467 -2.68961,0.93761 -2.52378,1.47416 0.7002,2.26517 3.9021599,0.95738 4.5494299,0.95385 5.8977899,-0.0321 z m 149.516635,-0.65297 c 1.3732,-1.00417 1.2525,-1.28364 -0.8317,-1.92428 -1.2269,-0.37713 -1.4314,-0.20672 -1.4314,1.19326 0,1.85757 0.5011,2.01941 2.2631,0.73102 z m 131.7667,-0.43713 c 1.7106,-0.67023 1.7293,-0.72227 0.4395,-1.21917 -0.7411,-0.28548 -2.6181,-0.70963 -4.1714,-0.94255 -2.1771,-0.32647 -3.0157,-0.19256 -3.6607,0.58456 -0.6916,0.83338 -0.6906,1.18396 0.01,2.02307 0.9053,1.09082 3.9311,0.90817 7.3869,-0.44591 z m -155.0224,-0.56909 c 0,-1.38113 -0.4694,-1.55993 -1.831,-0.69753 -1.0263,0.6501 -0.4138,1.96981 0.9144,1.96981 0.5041,0 0.9166,-0.57252 0.9166,-1.27228 z m 18.4482,-0.068 c 0,-0.31244 -0.5726,-0.56808 -1.2723,-0.56808 -1.24,0 -1.6579,0.67474 -0.8921,1.4405 0.5096,0.50963 2.1644,-0.15737 2.1644,-0.87242 z m -13.6771,0.068 c -0.2163,-0.34988 -0.6625,-0.63614 -0.9918,-0.63614 -0.3292,0 -0.5986,0.28626 -0.5986,0.63614 0,0.34988 0.4463,0.63614 0.9918,0.63614 0.5454,0 0.8148,-0.28626 0.5986,-0.63614 z m 4.7165,-2.2438205 c 0.7033,0.2232305 1.8664,0.0914 2.5845,-0.29294 1.0367,-0.55479 1.3834,-0.49649 1.6824,0.28283 0.2072,0.5399005 0.7798,0.9816405 1.2725,0.9816405 0.8881,0 -3.4006,-6.2489005 -4.3411,-6.3252005 -0.4858,-0.0395 -4.3245,5.32253 -4.3245,6.0406105 0,0.24221 0.4157,0.0954 0.9237,-0.32621 0.5081,-0.4216305 1.4992,-0.5839605 2.2025,-0.3607305 z m -31.7526,6.0606805 c 0,-0.34988 0.4293,-0.63615 0.9542,-0.63615 0.5249,0 0.9542,0.28627 0.9542,0.63615 0,0.34987 -0.4293,0.63614 -0.9542,0.63614 -0.5249,0 -0.9542,-0.28627 -0.9542,-0.63614 z m 64.2504,-0.67369 c 0,-0.37053 0.2863,-0.49676 0.6362,-0.28053 0.3498,0.21624 0.6361,0.5194 0.6361,0.67369 0,0.15429 -0.2863,0.28053 -0.6361,0.28053 -0.3499,0 -0.6362,-0.30316 -0.6362,-0.67369 z m -63.871,-5.5883605 c -0.22,-0.35619 -0.09,-0.83919 0.2887,-1.07334 0.978,-0.60447 1.6091,0.2235 0.7926,1.03999 -0.4568,0.4568705 -0.8127,0.4678305 -1.0813,0.0334 z m 63.871,-0.73553 c 0,-0.34988 0.2863,-0.63614 0.6362,-0.63614 0.3498,0 0.6361,0.28626 0.6361,0.63614 0,0.34988 -0.2863,0.63615 -0.6361,0.63615 -0.3499,0 -0.6362,-0.28627 -0.6362,-0.63615 z"
     style="fill:#000000;stroke-width:0.63614291"
     sodipodi:nodetypes="ccsccccccscscscsccccsccccscccccccssccccsccscssscsscssccccsccccccccccccscscsscscscccccccsccccccccscsssscscssscsccscscssssssscssscccccsssss" />
</svg>
